<svg xmlns="http://www.w3.org/2000/svg" viewBox="0 0 512 512">
  <rect width="512" height="512" rx="90" fill="#0a1f12"/>
  <rect width="512" height="512" rx="90" fill="none" stroke="#c9a84c" stroke-width="12" opacity="0.5"/>
  <g transform="rotate(-28 256 320)">
    <rect x="156" y="140" width="140" height="190" rx="14" fill="#f5f0e8" stroke="#c9a84c" stroke-width="4"/>
    <text x="174" y="178" font-family="Georgia,serif" font-size="38" font-weight="700" fill="#1a1a1a">A</text>
    <text x="174" y="210" font-family="Georgia,serif" font-size="26" fill="#1a1a1a">♠</text>
  </g>
  <g transform="rotate(-12 256 320)">
    <rect x="156" y="130" width="140" height="190" rx="14" fill="#f5f0e8" stroke="#c9a84c" stroke-width="4"/>
    <text x="174" y="168" font-family="Georgia,serif" font-size="38" font-weight="700" fill="#c0392b">K</text>
    <text x="174" y="200" font-family="Georgia,serif" font-size="26" fill="#c0392b">♥</text>
  </g>
  <g transform="rotate(4 256 320)">
    <rect x="156" y="122" width="140" height="190" rx="14" fill="#f5f0e8" stroke="#c9a84c" stroke-width="4"/>
    <text x="174" y="160" font-family="Georgia,serif" font-size="38" font-weight="700" fill="#c0392b">Q</text>
    <text x="174" y="192" font-family="Georgia,serif" font-size="26" fill="#c0392b">♦</text>
  </g>
  <g transform="rotate(18 256 320)">
    <rect x="156" y="126" width="140" height="190" rx="14" fill="#f5f0e8" stroke="#c9a84c" stroke-width="4"/>
    <text x="174" y="164" font-family="Georgia,serif" font-size="38" font-weight="700" fill="#1a1a1a">J</text>
    <text x="174" y="196" font-family="Georgia,serif" font-size="26" fill="#1a1a1a">♣</text>
  </g>
  <g transform="rotate(32 256 320)">
    <rect x="156" y="132" width="140" height="190" rx="14" fill="#f5f0e8" stroke="#c9a84c" stroke-width="4"/>
    <text x="174" y="170" font-family="Georgia,serif" font-size="38" font-weight="700" fill="#1a1a1a">10</text>
    <text x="174" y="202" font-family="Georgia,serif" font-size="26" fill="#1a1a1a">♠</text>
  </g>
  <ellipse cx="256" cy="420" rx="160" ry="18" fill="#c9a84c" opacity="0.18"/>
</svg>
